# xmcd
#
# Track frame offsets:
#	150
#	14579
#	33203
#	47324
#	62702
#	80300
#	99836
#	117066
#	134241
#	149117
#	165716
#	182709
#	200142
#	216750
#	236211
#	255092
#	269813
#	291216
#
# Disc length: 4203 seconds
#
# Revision: 8
# Processed by: cddbd v1.5.2PL0 Copyright (c) Steve Scherf et al.
# Submitted via: audiograbber 1.83.01
#
DISCID=0f106912
DTITLE=Various Artist - SFG363
DYEAR=2016
DGENRE=karaoke
TTITLE0=Drake f. Wizkid and Kyla - One dance
TTITLE1=Ariana Grande - Dangerous woman
TTITLE2=Joe and Jake - You're not alone
TTITLE3=Kevin Simm - All you good friends
TTITLE4=DNCE - Cake by the ocean
TTITLE5=Will.i.am f. Pia Mia - Boys and Girls
TTITLE6=Meghan Trainor - No
TTITLE7=Aluna George f. Popcaan - I'm in control
TTITLE8=Blonde and Craig David - Nothing like this
TTITLE9=Luvbug - Best is yet to come
TTITLE10=Iggy Azalea - Team
TTITLE11=DJ Snake f. Bipolar Sunshine - Middle
TTITLE12=Nathen Sykes f. G-Easy - Give it up
TTITLE13=Biffy Clyro - Wolves of winter
TTITLE14=Nick Jonas f. Tove Lo - Close
TTITLE15=Vamps Ft OMI - I found a girl
TTITLE16=Tom Odell - Wrong crowd
TTITLE17=Santana - Anywhere you want to go
EXTD=YEAR: 2016
EXTT0=
EXTT1=
EXTT2=
EXTT3=
EXTT4=
EXTT5=
EXTT6=
EXTT7=
EXTT8=
EXTT9=
EXTT10=
EXTT11=
EXTT12=
EXTT13=
EXTT14=
EXTT15=
EXTT16=
EXTT17=
PLAYORDER=
